# xmcd
#
# Track frame offsets:
#       150
#       19500
#       34475
#       49007
#       65437
#       76437
#       94750
#       108852
#       125532
#       138020
#       157200
#       169937
#       183605
#       200405
#       212975
#       228275
#       243362
#       257647
#       277900
#       295537
#       308225
#
# Disc length: 4287 seconds
#
# Revision: 0
# Processed by: cddbd v1.4PL0 Copyright (c) Steve Scherf et al.
# Submitted via: WhereIsIt 3.25
#
DISCID=2810bd15
DTITLE=Owen Blundell - From The Heart Of The Mountains and The Snowy Mountain Y
DTITLE=odeller
DYEAR=1900
DGENRE=
TTITLE0=Jodie
TTITLE1=You Can't Buy Love With Money
TTITLE2=Snowy Mountain Call
TTITLE3=Queen Of Ice
TTITLE4=Ding Dong Bells
TTITLE5=Lonely Sunday Song
TTITLE6=Two Strangers In The Night
TTITLE7=The Blind Girl
TTITLE8=The Stockman's Lullaby
TTITLE9=A Couple We'll Never Forget
TTITLE10=Poor Boy
TTITLE11=The Yarrangobilly Bushman
TTITLE12=Denise Marie
TTITLE13=Rockonover River
TTITLE14=My Yodelling Queen
TTITLE15=Outback Yodel
TTITLE16=Homeward Bound
TTITLE17=Walking On The Rooftop Of Australia
TTITLE18=A Little Too Far From Home
TTITLE19=My Sweetheart's In Love With A Swiss Mountaineer
TTITLE20=Mehi River Blues
EXTD=
EXTT0=
EXTT1=
EXTT2=
EXTT3=
EXTT4=
EXTT5=
EXTT6=
EXTT7=
EXTT8=
EXTT9=
EXTT10=
EXTT11=
EXTT12=
EXTT13=
EXTT14=
EXTT15=
EXTT16=
EXTT17=
EXTT18=
EXTT19=
EXTT20=
PLAYORDER=
